<svg width="602" height="602" viewBox="0 0 602 602" fill="none" xmlns="http://www.w3.org/2000/svg">
<path fill-rule="evenodd" clip-rule="evenodd" d="M155.21 504.173C156.449 504.807 157.708 505.407 158.984 505.97C168.438 510.143 178.675 512.25 189.008 512.149C199.342 512.048 209.535 509.742 218.906 505.385C228.277 501.029 236.61 494.722 243.348 486.886C250.086 479.05 255.073 469.866 257.976 459.948C260.879 450.03 261.632 439.606 260.183 429.374C258.734 419.142 255.118 409.337 249.575 400.615C247.444 397.262 245.048 394.098 242.414 391.153C238.2 386.442 233.377 382.288 228.06 378.808L228.043 378.797L228.291 378.418C195.401 359.784 168.391 332.163 150.498 298.687C130.799 261.832 123.138 219.733 128.593 178.302C132.534 148.369 143.177 119.87 159.554 94.8558C112.1 127.384 75.5767 176.365 59.5186 236.295C34.9955 327.817 64.5728 421.089 128.647 482.158L128.911 482.005C129.224 482.444 129.542 482.879 129.865 483.311C137.805 490.777 146.266 497.752 155.21 504.173ZM443.016 96.0299C444.293 96.5935 445.551 97.1929 446.79 97.8273C455.734 104.248 464.195 111.223 472.135 118.689C472.458 119.121 472.776 119.556 473.089 119.995L473.353 119.842C537.427 180.911 567.005 274.183 542.481 365.705C526.423 425.635 489.9 474.616 442.446 507.144C458.823 482.13 469.466 453.631 473.407 423.698C478.862 382.267 471.201 340.168 451.502 303.313C433.609 269.837 406.599 242.216 373.709 223.582L373.957 223.203L373.94 223.192C368.623 219.712 363.8 215.558 359.586 210.847C356.952 207.902 354.556 204.738 352.425 201.385C346.882 192.663 343.266 182.858 341.817 172.626C340.368 162.394 341.121 151.97 344.024 142.052C346.927 132.134 351.914 122.95 358.652 115.114C365.39 107.278 373.723 100.971 383.094 96.6147C392.465 92.258 402.658 89.9522 412.992 89.8513C423.325 89.7505 433.562 91.857 443.016 96.0299ZM379.091 11.3419C538.862 54.4101 633.621 218.754 590.778 378.646C547.937 538.53 383.715 633.475 223.822 590.903C223.508 590.819 223.194 590.735 222.88 590.65C63.127 547.57 -31.6179 383.236 11.2223 223.354C54.0656 63.4609 218.305 -31.4864 378.206 11.1049C378.501 11.1832 378.796 11.2622 379.091 11.3419Z" fill="#FFA801"/>
</svg>
